<svg width="178" height="38" viewBox="0 0 178 38" fill="none" xmlns="http://www.w3.org/2000/svg">
<path d="M32.1507 9.27179L16.1254 18.5233L16.0605 18.5625L16.0577 24.8475L26.8094 18.6411V24.769L26.7756 24.788L16.0577 30.9768V37.144L10.7503 34.0801V15.4986L10.7841 15.4783L21.5358 9.27179L16.0916 6.1293L5.30745 12.3561V30.9376L0 27.8722V9.29075L16.0916 0L32.1507 9.27179Z" fill="#FF5B00"/>
<path d="M58.2059 8.09138V4.32065H43.207V22.1074H47.2065V15.9903H57.8634V12.2223H47.2065V10.1507L45.1485 8.09273H58.2059V8.09138Z" fill="#FF5B00"/>
<path d="M75.5472 4.32178H65.5484C63.3482 4.32178 61.5488 6.11981 61.5488 8.32132V18.109C61.5488 20.3091 63.3469 22.1099 65.5484 22.1099H75.5472C77.7474 22.1099 79.5481 20.3091 79.5481 18.109V8.32132C79.5481 6.11981 77.7474 4.32178 75.5472 4.32178ZM75.5472 10.1505V18.3364H65.5484V10.1505L63.4904 8.09251H77.6066L75.5472 10.1505Z" fill="#FF5B00"/>
<path d="M98.4613 15.7924C100.06 15.2779 101.233 13.7628 101.233 11.9919V8.31863C101.233 6.11848 99.4321 4.31909 97.2319 4.31909H83.2335V22.1058H87.2331V15.9914H94.4049L97.4607 22.1058H101.804L98.4613 15.7924ZM97.2319 10.1505V12.222H87.2331V10.1505L85.1751 8.09253H99.2913L97.2319 10.1505Z" fill="#FF5B00"/>
<path d="M174.657 15.7924C176.256 15.2779 177.429 13.7628 177.429 11.9919V8.31863C177.429 6.11848 175.628 4.31909 173.428 4.31909H159.429V22.1058H163.429V15.9914H170.601L173.657 22.1058H178L174.657 15.7924ZM173.428 10.1505V12.222H163.429V10.1505L161.371 8.09253H175.487L173.428 10.1505Z" fill="#FF5B00"/>
<path d="M130.061 4.31909H120.945L119.489 5.77458L118.035 4.31909H108.919C106.72 4.31909 104.92 6.11983 104.92 8.31999V22.1058H108.919V10.1505L106.861 8.09253H117.491V22.1072H121.492V8.09117H132.122L130.064 10.1492V22.1058H134.063V8.31999C134.059 6.11983 132.258 4.31909 130.061 4.31909Z" fill="#FF5B00"/>
<path d="M151.743 4.31909H141.744C139.545 4.31909 137.745 6.11983 137.745 8.31999V22.1058H141.744V15.9928H151.743V22.1058H155.744V8.31999C155.744 6.11983 153.943 4.31909 151.743 4.31909ZM151.743 10.1505V12.222H141.744V10.1505L139.686 8.09253H153.802L151.743 10.1505Z" fill="#FF5B00"/>
<path d="M43.207 30.3134C43.207 29.2803 43.8961 28.5804 44.9021 28.5804C45.8025 28.5804 46.386 29.1409 46.4794 30.0033L45.7077 30.1306C45.6305 29.608 45.3692 29.302 44.8804 29.302C44.3023 29.302 44.0085 29.7583 44.0085 30.3134C44.0085 30.9416 44.3023 31.3519 44.8859 31.3519C45.38 31.3519 45.6197 31.0351 45.7131 30.4908L46.474 30.6018C46.3847 31.4629 45.7795 32.0681 44.8899 32.0681C43.8582 32.0695 43.207 31.3519 43.207 30.3134Z" fill="#FF5B00"/>
<path d="M94.7326 30.3134C94.7326 29.2803 95.4218 28.5804 96.4277 28.5804C97.3281 28.5804 97.9117 29.1409 98.0051 30.0033L97.2333 30.1306C97.1562 29.608 96.8948 29.302 96.4061 29.302C95.8279 29.302 95.5341 29.7583 95.5341 30.3134C95.5341 30.9416 95.8279 31.3519 96.4115 31.3519C96.9057 31.3519 97.1453 31.0351 97.2387 30.4908L97.9997 30.6018C97.9103 31.4629 97.3051 32.0681 96.4156 32.0681C95.3825 32.0695 94.7326 31.3519 94.7326 30.3134Z" fill="#FF5B00"/>
<path d="M50.7457 30.3134C50.7457 29.3074 51.4186 28.5804 52.4679 28.5804C53.524 28.5804 54.1847 29.3088 54.1847 30.3134C54.1847 31.3194 53.5511 32.0695 52.4679 32.0695C51.3794 32.0695 50.7457 31.3194 50.7457 30.3134ZM53.3913 30.308C53.3913 29.7583 53.0799 29.302 52.4693 29.302C51.8587 29.302 51.5473 29.7583 51.5473 30.308C51.5473 30.9362 51.8532 31.3519 52.4693 31.3519C53.0853 31.3519 53.3913 30.9349 53.3913 30.308Z" fill="#FF5B00"/>
<path d="M109.688 30.3134C109.688 29.3074 110.361 28.5804 111.41 28.5804C112.467 28.5804 113.127 29.3088 113.127 30.3134C113.127 31.3194 112.494 32.0695 111.41 32.0695C110.322 32.0695 109.688 31.3194 109.688 30.3134ZM112.334 30.308C112.334 29.7583 112.022 29.302 111.412 29.302C110.801 29.302 110.49 29.7583 110.49 30.308C110.49 30.9362 110.796 31.3519 111.412 31.3519C112.028 31.3519 112.334 30.9349 112.334 30.308Z" fill="#FF5B00"/>
<path d="M59.8849 30.6749C59.7346 30.3743 59.4963 29.8409 59.3298 29.4415H59.3081C59.3244 29.8693 59.3365 30.3865 59.3365 30.7142V31.9923H58.5756V28.6589H59.7806L60.3249 29.7759C60.5023 30.1536 60.7135 30.637 60.8584 31.0093H60.88C60.8692 30.6207 60.8638 30.243 60.8638 29.9424V28.6589H61.6247V31.9923H60.547L59.8849 30.6749Z" fill="#FF5B00"/>
<path d="M65.9844 30.9186L66.7683 30.7629C66.8455 31.1623 67.1461 31.3803 67.5631 31.3803C67.8961 31.3803 68.0857 31.2639 68.0857 31.0527C68.0857 30.8414 67.9137 30.7304 67.3194 30.6411C66.3973 30.503 66.1022 30.1184 66.1022 29.5904C66.1022 28.9622 66.5517 28.579 67.425 28.579C68.3416 28.579 68.7193 29.0515 68.8358 29.6513L68.0464 29.8125C67.9516 29.4347 67.7797 29.2519 67.3803 29.2519C67.0689 29.2519 66.9132 29.3792 66.9132 29.5742C66.9132 29.7461 67.0025 29.8801 67.7025 29.9858C68.653 30.136 68.9021 30.5531 68.9021 31.0242C68.9021 31.6579 68.4743 32.0681 67.5076 32.0681C66.4285 32.0627 66.0615 31.5238 65.9844 30.9186Z" fill="#FF5B00"/>
<path d="M73.0777 28.6575H75.7951V29.413H74.8392V31.9909H74.039V29.413H73.0777V28.6575Z" fill="#FF5B00"/>
<path d="M81.4003 30.7629H80.9508V31.9909H80.1506V28.6575H81.64C82.4564 28.6575 82.8788 29.019 82.8788 29.7028C82.8788 30.2132 82.6284 30.5368 82.2005 30.6803L83.1009 31.9801V31.9909H82.1558L81.4003 30.7629ZM80.9495 29.3684V30.1022H81.5994C81.927 30.1022 82.0881 29.9749 82.0881 29.7244C82.0881 29.4916 81.9432 29.3684 81.6102 29.3684H80.9495Z" fill="#FF5B00"/>
<path d="M89.5443 30.5571V28.6575H90.3445V30.6695C90.3445 31.5414 89.8327 32.0641 88.8836 32.0641C87.9277 32.0641 87.3997 31.5414 87.3997 30.6695V28.6575H88.1998V30.5517C88.1998 30.9741 88.3664 31.3072 88.8836 31.3072C89.4008 31.3072 89.5443 30.9741 89.5443 30.5571Z" fill="#FF5B00"/>
<path d="M103.344 31.3031L103.126 31.9896H102.281L103.371 28.663H104.473L105.607 31.9896H104.703L104.473 31.3031H103.344ZM103.039 28.361V28.185C103.039 27.7517 103.246 27.6434 103.525 27.6434C103.85 27.6434 104.095 27.8479 104.245 27.8479C104.31 27.8479 104.358 27.8154 104.358 27.6989V27.657H104.844V27.7761C104.844 28.2757 104.633 28.3935 104.336 28.3935C104.075 28.3935 103.78 28.1945 103.637 28.1945C103.575 28.1945 103.535 28.2216 103.535 28.296V28.361H103.039ZM104.305 30.6289C104.113 30.025 103.975 29.5714 103.896 29.256H103.888C103.808 29.6026 103.662 30.0995 103.505 30.6289H104.305Z" fill="#FF5B00"/>
</svg>
