<svg width="585" height="352" viewBox="0 0 585 352" fill="none" xmlns="http://www.w3.org/2000/svg">
<g clip-path="url(#clip0_1_261)">
<path opacity="0.1" d="M594 234.431C594.01 244.32 592.812 254.174 590.434 263.773C589.634 267.008 588.704 270.175 587.645 273.275C586.349 277.102 584.848 280.856 583.147 284.52C582.289 286.374 581.383 288.191 580.428 289.972C580.444 300.113 578.354 310.147 574.291 319.44C566.945 336.113 553.848 349.595 537.384 357.428C527.091 362.334 515.842 364.914 504.437 364.985H112.761C95.3344 365.022 78.2089 360.449 63.1255 351.729L62.8935 351.598C60.7451 350.342 58.6505 349.012 56.6097 347.608C52.0179 344.439 47.7039 340.886 43.7142 336.988C38.3141 331.716 33.5557 325.826 29.5377 319.44C20.1008 304.47 15.1016 287.137 15.1191 269.446C5.56224 252.694 -0.0105133 232.627 -0.0105133 211.064C-0.0105133 183.858 8.84537 159.04 23.395 140.252C26.4284 136.327 29.751 132.634 33.3352 129.204C36.8717 125.809 40.6728 122.701 44.7026 119.908C47.9268 117.672 51.2964 115.652 54.7891 113.863C56.2466 113.122 57.7091 112.422 59.1968 111.772C60.503 111.192 61.8243 110.653 63.1608 110.144C64.7645 109.536 66.3885 108.977 68.0326 108.467C69.6766 107.956 71.2989 107.509 72.8993 107.127C75.2528 106.552 77.6466 106.085 80.0808 105.726C82.0981 105.429 84.1154 105.222 86.1326 105.066C87.7364 104.945 89.3553 104.88 90.9842 104.859H91.8668C93.6622 104.859 95.4475 104.93 97.2176 105.051C97.4042 104.678 97.606 104.3 97.7926 103.932C98.4986 102.587 99.2299 101.247 99.9662 99.937C99.9645 99.9254 99.9645 99.9135 99.9662 99.9018C100.092 99.67 100.218 99.4433 100.349 99.2216C100.945 98.1485 101.565 97.0854 102.2 96.0325C102.493 95.5287 102.78 95.0551 103.078 94.5815C103.141 94.4638 103.21 94.3494 103.285 94.2389C103.587 93.7351 103.895 93.2312 104.208 92.7274C105.764 90.2419 107.383 87.8001 109.064 85.4019L109.493 84.7873C109.755 84.4145 109.997 84.0517 110.29 83.6789C110.986 82.7065 111.702 81.7291 112.423 80.7719C112.927 80.0867 113.432 79.4065 113.976 78.7566C115.287 77.0772 116.632 75.3978 118.011 73.7184C119.389 72.039 120.822 70.3815 122.308 68.7458C122.509 68.5191 122.711 68.2974 122.923 68.0757L125.076 65.7279C125.182 65.6171 125.273 65.5163 125.374 65.4155C125.631 65.1384 125.878 64.8613 126.156 64.5943C127.31 63.37 128.496 62.171 129.686 60.9769C135.743 54.95 142.196 49.3334 149.001 44.1646C149.269 43.9529 149.541 43.7514 149.808 43.5499C151.089 42.5876 152.39 41.6354 153.692 40.6983C160.848 35.5692 168.33 30.9076 176.088 26.7426C176.623 26.4352 177.168 26.1481 177.717 25.8659C184.673 22.1896 191.827 18.8998 199.146 16.0113C203.135 14.4343 207.215 12.9531 211.32 11.5978C214.054 10.7011 216.797 9.84961 219.576 9.04854C223.92 7.79907 228.294 6.67892 232.699 5.68808C245.674 2.77947 258.875 0.98272 272.157 0.317395C276.191 0.112509 280.271 0.00670924 284.397 -8.31585e-06C304.302 -0.0263347 324.13 2.4793 343.402 7.45647C343.601 7.7573 343.874 8.00254 344.194 8.16912C344.515 8.3357 344.872 8.41814 345.233 8.40869H346.927C347.664 8.61022 348.395 8.81174 349.131 9.02334C353.243 10.2056 357.296 11.4971 361.29 12.8977L362.299 13.2604C372.157 16.7624 381.749 20.9719 391 25.8559C399.339 30.2479 407.368 35.2035 415.031 40.6882C416.211 41.5346 417.374 42.3878 418.521 43.2476C419.913 42.3575 421.328 41.5044 422.767 40.6882C428.324 37.5265 434.227 35.0127 440.358 33.1965C453.177 29.4068 466.74 28.8769 479.816 31.6548C496.585 35.2067 511.765 44.0235 524.025 56.5635C529.017 61.6943 533.46 67.3305 537.284 73.3809C537.561 73.8142 537.838 74.2525 538.106 74.6958C541.391 80.0509 544.216 85.6752 546.548 91.5082C546.634 91.7248 546.719 91.9264 546.795 92.138C548.948 97.5999 550.685 103.217 551.99 108.94C552.05 109.232 552.121 109.52 552.181 109.812C553.402 115.351 554.231 120.969 554.663 126.624C554.663 126.826 554.662 127.032 554.703 127.244C554.915 130.169 555.022 133.125 555.026 136.111C555.026 138.781 554.935 141.431 554.768 144.061C554.768 144.348 554.728 144.646 554.703 144.943C554.657 145.704 554.592 146.454 554.526 147.22C558.378 150.324 561.983 153.722 565.309 157.382C566.778 158.984 568.2 160.647 569.575 162.37C573.764 167.614 577.445 173.244 580.57 179.182C589.098 195.264 594 214.183 594 234.431Z" fill="#C3C3C4"/>
<path opacity="0.1" d="M537.012 355.563C537.012 359.005 525.145 362.229 504.438 365H112.761C95.3348 365.037 78.2093 360.464 63.1259 351.745L62.8939 351.614C68.8449 349.447 79.587 347.427 94.2073 345.603L94.8629 345.522C101.419 344.721 108.747 343.961 116.755 343.24C116.957 343.24 117.164 343.21 117.366 343.185C123.72 342.62 130.48 342.091 137.644 341.598C137.871 341.598 138.093 341.557 138.32 341.547C141.084 341.349 143.905 341.161 146.783 340.983L147.892 340.912C168.847 339.613 192.666 338.575 218.497 337.89H218.528C222.145 337.789 225.802 337.7 229.497 337.623C233.605 337.525 237.764 337.44 241.973 337.366C245.186 337.295 248.439 337.245 251.702 337.194H251.777C266.499 336.973 281.709 336.862 297.262 336.862C335.722 336.862 372.073 337.562 404.284 338.822H404.375C409.328 339.013 414.189 339.225 418.93 339.441L422.964 339.633C428.314 339.888 433.525 340.162 438.598 340.454C498.26 343.845 537.012 349.351 537.012 355.563Z" fill="#FF5B00"/>
<g opacity="0.2">
<path d="M343.08 334.549C343.064 335.093 343.001 335.634 342.893 336.167C339.383 335.609 335.853 335.105 332.303 334.655C332.303 334.514 332.303 334.368 332.303 334.222C332.335 332.711 332.771 331.236 333.563 329.949C334.602 328.307 336.181 327.279 337.921 327.335C339.661 327.39 341.168 328.514 342.101 330.211C342.807 331.545 343.145 333.042 343.08 334.549Z" fill="#3F3D56"/>
<path d="M343.37 325.94C343.493 322.044 341.178 318.809 338.199 318.715C335.22 318.621 332.706 321.703 332.582 325.599C332.459 329.496 334.774 332.731 337.753 332.825C340.732 332.919 343.246 329.836 343.37 325.94Z" fill="#3F3D56"/>
<path d="M343.645 317.314C343.768 313.418 341.453 310.183 338.474 310.089C335.496 309.995 332.981 313.078 332.858 316.974C332.734 320.87 335.049 324.105 338.028 324.199C341.007 324.293 343.521 321.211 343.645 317.314Z" fill="#3F3D56"/>
<path d="M343.915 308.689C344.038 304.793 341.723 301.558 338.744 301.464C335.766 301.37 333.251 304.452 333.128 308.348C333.005 312.245 335.319 315.48 338.298 315.574C341.277 315.668 343.792 312.585 343.915 308.689Z" fill="#3F3D56"/>
<path d="M344.185 300.063C344.308 296.167 341.993 292.932 339.015 292.838C336.036 292.744 333.521 295.826 333.398 299.723C333.275 303.619 335.589 306.854 338.568 306.948C341.547 307.042 344.062 303.96 344.185 300.063Z" fill="#3F3D56"/>
<path d="M320.436 240.215C319.726 239.254 319.085 238.244 318.519 237.192L332.772 235.313L317.43 234.945C316.061 231.701 315.369 228.212 315.396 224.691C315.423 221.171 316.168 217.693 317.586 214.47L337.82 225.78L319.286 211.25C321.156 208.229 323.629 205.626 326.551 203.603C329.473 201.579 332.781 200.18 336.269 199.491C339.757 198.803 343.349 198.84 346.822 199.601C350.295 200.362 353.573 201.83 356.453 203.913C359.332 205.996 361.751 208.65 363.557 211.71C365.364 214.769 366.519 218.167 366.952 221.692C367.385 225.218 367.085 228.794 366.072 232.199C365.059 235.603 363.354 238.763 361.064 241.479C362.169 242.974 363.107 244.583 363.863 246.281L345.158 255.249L364.993 249.288C366.242 253.406 366.443 257.77 365.578 261.984C364.714 266.199 362.81 270.132 360.04 273.426C362.92 277.33 364.642 281.964 365.01 286.799C365.377 291.633 364.375 296.474 362.118 300.767C359.862 305.06 356.441 308.632 352.248 311.074C348.055 313.516 343.258 314.73 338.407 314.578C333.556 314.425 328.845 312.911 324.815 310.21C320.784 307.509 317.595 303.729 315.614 299.302C313.632 294.876 312.938 289.982 313.609 285.18C314.281 280.377 316.292 275.861 319.412 272.147C315.972 267.482 314.201 261.797 314.384 256.006C314.566 250.215 316.693 244.653 320.421 240.215H320.436Z" fill="#458E63"/>
<path opacity="0.1" d="M366.092 257.637C365.916 263.431 363.783 268.996 360.04 273.426C362.92 277.33 364.642 281.964 365.01 286.799C365.377 291.634 364.375 296.474 362.118 300.767C359.862 305.06 356.441 308.632 352.248 311.074C348.055 313.516 343.258 314.73 338.407 314.578C333.556 314.425 328.845 312.911 324.815 310.21C320.784 307.509 317.595 303.729 315.614 299.302C313.632 294.876 312.938 289.982 313.609 285.18C314.281 280.377 316.292 275.861 319.412 272.147C316.099 267.648 366.183 254.74 366.092 257.637Z" fill="black"/>
</g>
<g opacity="0.2">
<path d="M266.423 334.549C266.407 335.093 266.344 335.634 266.236 336.167C262.726 335.609 259.196 335.105 255.646 334.655C255.646 334.514 255.646 334.368 255.646 334.222C255.679 332.711 256.114 331.236 256.906 329.949C257.945 328.307 259.524 327.279 261.264 327.335C263.004 327.39 264.512 328.514 265.445 330.211C266.15 331.545 266.488 333.042 266.423 334.549Z" fill="#3F3D56"/>
<path d="M266.707 325.942C266.83 322.046 264.516 318.811 261.537 318.717C258.558 318.623 256.043 321.705 255.92 325.602C255.797 329.498 258.112 332.733 261.09 332.827C264.069 332.921 266.584 329.838 266.707 325.942Z" fill="#3F3D56"/>
<path d="M266.982 317.317C267.106 313.42 264.791 310.185 261.812 310.091C258.833 309.997 256.318 313.08 256.195 316.976C256.072 320.872 258.387 324.107 261.366 324.201C264.344 324.295 266.859 321.213 266.982 317.317Z" fill="#3F3D56"/>
<path d="M267.252 308.691C267.376 304.795 265.061 301.56 262.082 301.466C259.103 301.372 256.589 304.454 256.465 308.35C256.342 312.247 258.657 315.482 261.636 315.576C264.615 315.67 267.129 312.587 267.252 308.691Z" fill="#3F3D56"/>
<path d="M267.523 300.065C267.646 296.169 265.331 292.934 262.352 292.84C259.373 292.746 256.859 295.828 256.735 299.725C256.612 303.621 258.927 306.856 261.906 306.95C264.885 307.044 267.399 303.962 267.523 300.065Z" fill="#3F3D56"/>
<path d="M243.779 240.215C243.069 239.254 242.428 238.244 241.863 237.192L256.115 235.313L240.773 234.945C239.404 231.701 238.712 228.212 238.739 224.691C238.766 221.171 239.511 217.693 240.93 214.47L261.163 225.78L242.629 211.25C244.499 208.229 246.972 205.626 249.894 203.603C252.816 201.579 256.124 200.18 259.612 199.491C263.1 198.803 266.693 198.84 270.165 199.601C273.638 200.362 276.917 201.83 279.796 203.913C282.675 205.996 285.094 208.65 286.9 211.71C288.707 214.769 289.863 218.167 290.295 221.692C290.728 225.218 290.428 228.794 289.415 232.199C288.402 235.603 286.697 238.763 284.407 241.479C285.512 242.974 286.45 244.583 287.206 246.281L268.501 255.249L288.336 249.288C289.585 253.406 289.786 257.77 288.921 261.984C288.057 266.199 286.153 270.132 283.383 273.426C286.263 277.33 287.985 281.964 288.353 286.799C288.72 291.633 287.718 296.474 285.462 300.767C283.205 305.06 279.784 308.632 275.591 311.074C271.398 313.516 266.602 314.73 261.75 314.578C256.899 314.425 252.189 312.911 248.158 310.21C244.127 307.509 240.939 303.729 238.957 299.302C236.975 294.876 236.281 289.982 236.953 285.18C237.624 280.377 239.635 275.861 242.755 272.147C239.315 267.482 237.544 261.797 237.727 256.006C237.91 250.215 240.036 244.653 243.764 240.215H243.779Z" fill="#458E63"/>
<path opacity="0.1" d="M289.435 257.637C289.259 263.431 287.126 268.996 283.383 273.426C286.263 277.33 287.985 281.964 288.353 286.799C288.72 291.634 287.718 296.474 285.462 300.767C283.205 305.06 279.784 308.632 275.591 311.074C271.398 313.516 266.602 314.73 261.75 314.578C256.899 314.425 252.189 312.911 248.158 310.21C244.127 307.509 240.939 303.729 238.957 299.302C236.975 294.876 236.281 289.982 236.953 285.18C237.624 280.377 239.635 275.861 242.755 272.147C239.442 267.648 289.526 254.74 289.435 257.637Z" fill="black"/>
</g>
<g opacity="0.2">
<path d="M475.817 340.061C475.779 341.091 475.656 342.115 475.449 343.124C468.691 342.046 461.885 341.082 455.029 340.232C455.029 339.96 455.029 339.683 455.029 339.401C455.093 336.492 455.932 333.652 457.46 331.174C459.477 328.015 462.503 326.035 465.847 326.136C469.191 326.236 472.1 328.408 473.916 331.678C475.285 334.253 475.941 337.147 475.817 340.061Z" fill="#3F3D56"/>
<path d="M476.366 323.474C476.603 315.97 472.145 309.741 466.407 309.56C460.669 309.378 455.826 315.314 455.588 322.818C455.351 330.321 459.81 336.551 465.547 336.732C471.285 336.913 476.129 330.977 476.366 323.474Z" fill="#3F3D56"/>
<path d="M476.89 306.868C477.128 299.364 472.669 293.135 466.931 292.953C461.193 292.772 456.35 298.708 456.112 306.212C455.875 313.715 460.334 319.945 466.072 320.126C471.809 320.307 476.653 314.371 476.89 306.868Z" fill="#3F3D56"/>
<path d="M477.419 290.262C477.657 282.758 473.198 276.529 467.46 276.348C461.723 276.166 456.879 282.102 456.642 289.606C456.404 297.109 460.863 303.339 466.601 303.52C472.338 303.701 477.182 297.765 477.419 290.262Z" fill="#3F3D56"/>
<path d="M477.352 272.9C477.578 265.393 473.107 259.168 467.366 258.996C461.626 258.824 456.79 264.77 456.564 272.277C456.339 279.784 460.81 286.009 466.55 286.181C472.29 286.354 477.127 280.407 477.352 272.9Z" fill="#3F3D56"/>
<path d="M432.219 158.455C430.858 156.606 429.626 154.665 428.532 152.646L455.967 149.029L426.439 148.319C423.802 142.074 422.467 135.357 422.518 128.579C422.568 121.801 424.002 115.105 426.732 108.9L465.691 130.67L430.015 102.698C433.622 96.896 438.387 91.8984 444.012 88.0167C449.637 84.135 456.003 81.4523 462.711 80.1358C469.42 78.8194 476.328 78.8973 483.005 80.3649C489.683 81.8325 495.986 84.6581 501.522 88.6659C507.058 92.6736 511.708 97.7774 515.183 103.659C518.658 109.541 520.884 116.075 521.72 122.854C522.557 129.632 521.987 136.511 520.046 143.06C518.105 149.608 514.835 155.688 510.439 160.919C512.564 163.798 514.371 166.898 515.83 170.164L479.817 187.44L517.999 175.953C520.405 183.87 520.797 192.262 519.139 200.368C517.481 208.475 513.825 216.04 508.502 222.38C514.045 229.894 517.36 238.815 518.066 248.122C518.773 257.43 516.844 266.748 512.499 275.012C508.154 283.276 501.57 290.151 493.498 294.852C485.426 299.554 476.192 301.891 466.853 301.597C457.514 301.302 448.447 298.389 440.687 293.189C432.928 287.989 426.79 280.713 422.975 272.192C419.16 263.672 417.822 254.25 419.114 245.006C420.406 235.761 424.277 227.067 430.282 219.916C423.663 210.936 420.255 199.995 420.606 188.848C420.957 177.702 425.047 166.996 432.219 158.45V158.455Z" fill="#458E63"/>
<path opacity="0.1" d="M520.122 191.989C519.791 203.138 515.704 213.849 508.523 222.39C514.065 229.904 517.38 238.825 518.086 248.132C518.793 257.44 516.864 266.758 512.519 275.022C508.174 283.286 501.59 290.161 493.518 294.862C485.446 299.564 476.213 301.901 466.874 301.607C457.535 301.313 448.467 298.399 440.708 293.199C432.948 287.999 426.81 280.723 422.995 272.202C419.18 263.682 417.842 254.26 419.134 245.016C420.427 235.771 424.297 227.077 430.302 219.926C423.877 211.255 520.299 186.412 520.122 191.989Z" fill="black"/>
</g>
<path d="M79.592 340.948L84.8824 340.933H92.3413L101.772 187.883L195.167 32.1888L191.108 27.8359V16.8123L90.1021 184.276L79.592 340.948Z" fill="#F1C0C0"/>
<path opacity="0.1" d="M85.4472 340.933H92.3413L101.772 187.883L195.167 32.1889L191.108 27.8359L94.7721 185.551L85.4472 340.933Z" fill="black"/>
<path d="M64.0034 342.222L306.002 360.723L306.209 360.738L540.411 346.349L540.587 346.339V336.459L282.526 331.728L67.2261 331.521H65.6526L65.4811 332.63L64.0034 342.222Z" fill="#F1C0C0"/>
<path opacity="0.1" d="M64.0034 342.222L306.002 360.723L306.209 360.738L540.411 346.349L540.587 346.157V336.665H540.381L306.002 344.485L67.2261 331.521H67.1908L66.7671 331.799L65.4811 332.63L64.0034 342.222Z" fill="black"/>
<path opacity="0.1" d="M64.0034 342.222L306.002 360.723V344.485L66.7671 331.799L65.4811 332.63L64.0034 342.222Z" fill="black"/>
<path d="M191.077 27.6293L297.767 142.026L294.468 343.25L303.531 344.344L303.682 344.364H312.745L313.829 150.666L513.606 217.331L516.975 336.031L524.267 336.847L526.739 337.124L521.02 209.099L312.18 135.854L197.669 16.9282H191.077V27.6293Z" fill="#F1C0C0"/>
<path opacity="0.1" d="M313.007 146.963L313.829 150.666L513.606 217.331L516.975 336.031L524.267 336.847L518.548 214.863L313.007 146.963Z" fill="black"/>
<path opacity="0.1" d="M191.077 27.6293L297.767 142.026L294.468 343.25L303.531 344.344L306.002 135.441L191.077 16.9282V27.6293Z" fill="black"/>
<path d="M313.396 227.72L386.668 242.134L386.694 242.139L515.028 267.396L520.904 265.043L520.884 264.63L520.5 256.443L313.471 214.651L313.396 227.72Z" fill="#F1C0C0"/>
<path opacity="0.1" d="M386.694 242.139L515.028 267.396L520.904 265.043L520.883 264.63L386.694 242.139Z" fill="black"/>
<path d="M391.601 176.618L393.583 285.614L394.606 341.532L403.629 341.23L409.307 341.038L407.542 178.195L403.629 176.895L402.771 176.618H391.601Z" fill="#F1C0C0"/>
<path opacity="0.1" d="M391.681 176.593V176.618L393.583 285.614L394.606 341.532L403.629 341.23V176.593H391.681Z" fill="black"/>
<path d="M250.275 204.454C250.804 204.741 251.31 205.07 251.788 205.436C252.353 205.93 252.86 206.486 253.301 207.094C255.464 209.89 257.461 213.14 257.249 216.666C257.254 217.179 257.157 217.688 256.964 218.164C256.771 218.639 256.486 219.072 256.125 219.437C255.232 220.198 253.951 220.233 252.781 220.233C251.51 220.233 250.174 220.233 249.074 219.578C247.975 218.923 247.057 217.649 245.756 217.679C245.572 217.709 245.385 217.709 245.201 217.679C244.752 217.533 244.662 216.943 244.369 216.571C243.865 215.901 242.801 216.067 242.009 216.359C241.217 216.651 240.339 217.09 239.558 216.752C239.104 216.513 238.733 216.142 238.494 215.689C236.623 212.666 236.224 209.033 235.871 205.522C235.654 203.386 234 196.101 238.564 197.758C240.582 198.484 242.468 199.935 244.303 200.998L250.275 204.454Z" fill="#3F3D56"/>
<path d="M245.766 205.174C246.174 205.467 246.668 205.615 247.169 205.595C247.671 205.575 248.152 205.388 248.535 205.063C249.286 204.386 249.764 203.458 249.881 202.454C250.386 202.297 250.643 202.957 250.966 203.361C251.53 204.046 252.68 204.036 253.195 204.766C253.553 205.27 253.472 205.97 253.724 206.54C254.052 207.275 254.864 207.658 255.419 208.253C255.943 208.902 256.321 209.656 256.528 210.464L257.355 212.943C257.751 213.974 258.006 215.053 258.112 216.152C258.164 216.702 258.106 217.256 257.942 217.783C257.777 218.31 257.509 218.798 257.154 219.221C256.044 220.415 254.223 220.541 252.615 220.505C252.077 220.517 251.541 220.454 251.021 220.319C249.594 219.876 248.681 218.44 248.303 216.994C247.924 215.548 247.965 214.031 247.743 212.55C247.503 211.095 247.08 209.676 246.482 208.328C246.038 207.28 244.818 205.718 244.838 204.605C245.201 204.605 245.463 204.937 245.766 205.174Z" fill="#3F3D56"/>
<path d="M247.576 200.071C247.341 199.355 247.203 198.611 247.168 197.859C247.168 196.347 247.859 194.927 248.555 193.576L242.79 194.357C242.095 194.453 241.318 194.594 240.924 195.174C240.775 195.461 240.697 195.779 240.697 196.103C240.697 196.427 240.775 196.745 240.924 197.033C241.213 197.607 241.443 198.21 241.61 198.831C241.623 199.375 241.686 199.916 241.797 200.448C241.976 200.84 242.228 201.193 242.538 201.491C244.187 203.315 245.423 205.466 246.654 207.598C246.618 207.537 250.128 204.822 249.987 203.935C249.906 203.431 248.893 202.826 248.57 202.343C248.124 201.641 247.789 200.874 247.576 200.071Z" fill="#BE6F72"/>
<path d="M297 180.387V185.349L211.936 201.925L207.523 204.595H192.298V201.799L275.874 181.626L297 180.387Z" fill="#F1C0C0"/>
<path opacity="0.1" d="M297 185.349L211.936 201.925L207.523 204.595H192.298L276.494 186.593L297 185.349Z" fill="black"/>
<path d="M228.705 321.264C227.757 320.117 226.449 319.325 224.993 319.015C223.537 318.706 222.019 318.898 220.686 319.561C220.401 319.695 220.149 319.891 219.95 320.135C219.445 320.84 219.768 321.813 219.814 322.684C219.93 324.811 218.235 326.539 216.712 328.025C215.895 328.821 215.063 329.672 214.695 330.756C214.327 331.839 214.599 333.214 215.587 333.778C216.019 333.995 216.488 334.125 216.969 334.161C218.581 334.476 220.234 334.521 221.861 334.297C223.47 333.99 225.048 333.078 225.744 331.597C225.879 331.195 226.101 330.829 226.395 330.524C227.283 329.824 228.644 330.645 229.653 330.146C230.485 329.733 230.52 329.083 230.53 328.226C230.561 325.858 230.208 323.178 228.705 321.264Z" fill="#59595E"/>
<path d="M240.808 321.173C241.429 322.805 241.515 324.584 241.595 326.327C241.641 327.335 241.671 328.413 241.126 329.264C240.582 330.116 239.517 330.564 238.499 330.776C236.396 331.209 233.96 330.801 232.603 329.133C231.564 327.859 231.347 326.11 231.539 324.458C231.7 323.103 232.043 321.516 231.07 320.553C230.818 320.296 230.49 320.115 230.258 319.838C229.754 319.223 229.834 318.296 230.107 317.54C230.461 316.818 230.727 316.055 230.899 315.268C230.939 314.895 237.727 315.53 238.352 315.838C239.205 316.256 239.074 316.956 239.331 317.802C239.689 318.981 240.375 320.044 240.808 321.173Z" fill="#59595E"/>
<path d="M242.054 248.795C243.386 249.656 243.9 251.349 244.107 252.921C244.677 257.229 243.678 261.582 243.602 265.93C243.532 272.021 245.297 278.223 243.789 284.122C242.886 287.649 243.653 291.68 242.806 295.242C242.553 296.3 242.09 297.297 241.847 298.355C241.343 300.648 241.873 303.046 242.584 305.288C242.811 305.892 242.955 306.524 243.012 307.167C242.978 308.157 242.727 309.127 242.276 310.008L239.25 317.158C238.912 317.959 237.581 318.09 236.729 318.195C235.125 318.387 233.334 318.523 232.059 317.53C230.783 316.538 230.475 314.875 230.278 313.324C229.901 310.345 229.733 307.343 229.774 304.341C229.829 303.557 229.76 302.77 229.567 302.008C229.29 301.146 228.68 300.401 228.513 299.489C228.301 298.31 228.901 297.151 229.123 295.962C229.276 294.876 229.259 293.773 229.073 292.692C228.876 291.08 228.649 289.468 228.392 287.866C228.029 285.624 228.548 283.412 228.896 281.165C229.224 279.054 228.806 276.903 228.392 274.807C228.428 276.508 228.216 278.205 227.762 279.845C227.494 280.646 227.111 281.412 226.879 282.228C225.845 285.891 228.049 289.735 227.737 293.529C227.59 295.302 226.894 297.055 227.091 298.804C227.227 300.083 227.822 301.257 228.231 302.476C228.639 303.696 228.851 305.091 228.231 306.23C226.592 309.323 227.817 313.53 229.285 316.704C229.583 317.267 229.842 317.85 230.061 318.447C230.495 319.878 230.132 321.415 230.248 322.906C229.826 322.975 229.393 322.947 228.983 322.824C228.573 322.701 228.197 322.486 227.883 322.196C227.661 321.964 227.479 321.692 227.262 321.45C226.657 320.873 225.939 320.426 225.154 320.135C224.694 319.878 224.169 319.757 223.641 319.788C223.087 319.942 222.589 320.252 222.204 320.679C221.705 321.117 221.176 321.52 220.621 321.883C220.384 322.065 220.107 322.188 219.814 322.241C219.666 322.264 219.515 322.24 219.382 322.172C219.249 322.104 219.14 321.996 219.072 321.863C219.041 321.779 219.022 321.691 219.017 321.601C218.829 320.08 218.73 318.549 218.719 317.017C218.719 314.382 215.562 312.568 215.164 309.963C214.846 307.862 215.436 305.721 215.239 303.605C215.144 302.517 214.841 301.449 214.861 300.36C214.861 299.655 215.023 298.965 215.078 298.264C215.124 297.487 215.112 296.707 215.043 295.932L214.886 293.498C214.735 291.095 214.569 288.642 213.621 286.445C212.496 283.88 211.831 281.138 211.654 278.344C211.553 276.58 211.618 274.817 211.417 273.048C211.235 271.451 210.832 269.864 210.948 268.262C211.043 267.023 211.452 265.824 211.548 264.584C211.744 262.201 210.837 259.884 210.126 257.601C209.415 255.319 208.89 252.79 209.823 250.588C209.956 250.227 210.178 249.905 210.469 249.651C210.826 249.415 211.233 249.263 211.659 249.208C220.312 247.392 229.181 246.827 237.994 247.53C239.431 247.612 240.826 248.046 242.054 248.795Z" fill="#3F3D56"/>
<path d="M213.424 195.284C217.886 195.284 221.503 191.671 221.503 187.213C221.503 182.756 217.886 179.142 213.424 179.142C208.962 179.142 205.345 182.756 205.345 187.213C205.345 191.671 208.962 195.284 213.424 195.284Z" fill="#BE6F72"/>
<path d="M211.86 197.295C211.977 197.756 211.977 198.239 211.86 198.7C211.733 199.023 211.555 199.322 211.331 199.587C210.549 200.595 209.683 201.535 208.744 202.398C209.222 203.466 210.084 204.317 211.159 204.781C212.227 205.235 213.347 205.555 214.493 205.734C215.065 205.884 215.661 205.925 216.248 205.854C216.789 205.719 217.302 205.486 217.761 205.169L222.249 202.484C222.927 202.117 223.554 201.665 224.115 201.139C224.939 200.293 225.405 199.164 225.417 197.985C225.437 197.774 225.38 197.562 225.255 197.39C225.083 197.241 224.867 197.151 224.64 197.133C223.061 196.786 221.816 195.506 221.11 194.055C220.471 192.568 220.058 190.994 219.884 189.385L215.098 191.904C214.387 192.282 213.681 192.659 212.945 192.987C212.476 193.199 211.528 193.375 211.195 193.803C210.559 194.594 211.694 196.342 211.86 197.295Z" fill="#BE6F72"/>
<path d="M208.774 200.932C208.093 201.49 207.561 202.209 207.226 203.023C206.913 204.031 207.226 205.094 207.508 206.091C208.832 210.343 209.843 214.686 210.534 219.085C210.958 222.108 211.114 225.176 211.321 228.234C211.744 234.471 212.36 244.417 213.182 250.613C216.208 250.75 219.158 249.868 222.159 249.545C227.767 248.951 233.541 250.311 239.033 249.042C237.702 243.787 236.371 234.814 235.039 229.564C234.45 227.496 234.042 225.38 233.819 223.241C233.703 221.704 233.773 220.163 233.793 218.616C233.839 215.593 233.672 212.57 233.506 209.547C233.314 206.021 233.123 202.494 232.285 199.043C232.227 198.603 232.021 198.196 231.7 197.889C231.196 197.521 230.541 197.652 229.94 197.733C228.103 197.966 226.243 197.526 224.706 196.494C224.04 196.04 223.147 195.486 222.527 195.99C222.262 196.294 222.087 196.665 222.023 197.063C221.748 197.776 221.324 198.422 220.78 198.958C220.236 199.494 219.583 199.908 218.865 200.171C217.428 200.691 215.923 201 214.397 201.088C213.93 201.188 213.443 201.134 213.01 200.932C212.294 200.494 212.244 198.917 211.341 198.811C210.549 198.72 209.309 200.423 208.774 200.932Z" fill="#3F3D56"/>
<path d="M220.706 213.235C218.845 211.457 218.028 208.877 216.672 206.686C215.748 205.212 214.568 203.915 213.187 202.857C212.493 202.399 211.856 201.859 211.291 201.25C210.811 200.66 210.448 199.874 209.722 199.647C209.422 199.582 209.111 199.591 208.815 199.672C208.518 199.754 208.247 199.906 208.023 200.116C207.578 200.539 207.157 200.987 206.762 201.456C204.623 203.668 200.866 203.975 199.172 206.535C198.715 207.077 198.404 207.728 198.269 208.424C197.781 212.149 198.745 215.919 200.962 218.954C201.391 219.657 202.05 220.191 202.828 220.465C202.723 221.405 202.847 222.355 203.191 223.236C204.125 226.425 205.272 229.547 206.626 232.582C206.302 233.769 206.076 234.981 205.95 236.204C205.597 239.283 205.925 242.406 205.592 245.49C205.319 248.009 204.583 250.462 204.558 252.986C204.558 253.39 204.593 253.868 204.941 254.075C205.126 254.17 205.334 254.213 205.541 254.201L211.744 254.387C215.345 254.493 218.981 254.599 222.527 253.934C222.999 253.864 223.457 253.719 223.883 253.505C225.084 252.835 225.482 251.324 225.674 249.979C225.924 248.234 226.024 246.471 225.971 244.709C226.723 247.082 227.615 249.535 229.885 250.563C231.085 251.107 232.457 251.067 233.773 251.032C236.61 250.905 239.438 250.614 242.241 250.16C242.414 250.181 242.589 250.162 242.753 250.104C242.917 250.045 243.065 249.949 243.185 249.823C243.305 249.698 243.394 249.545 243.445 249.379C243.495 249.213 243.506 249.037 243.476 248.865L243.507 246.114C243.567 240.527 242.18 235.187 241.641 229.625C241.469 227.871 241.484 226.098 241.056 224.38C240.879 223.659 240.622 222.954 240.466 222.228C240.331 221.518 240.247 220.799 240.213 220.077L239.82 214.535C239.633 211.971 239.366 209.497 239.169 206.938C239.061 204.445 238.7 201.971 238.09 199.552C237.651 198.04 236.739 196.327 235.16 196.141C234.318 196.045 233.501 196.413 232.699 196.67C230.728 197.29 228.613 197.281 226.647 196.645C226.04 196.405 225.407 196.236 224.761 196.141C224.436 196.097 224.105 196.14 223.802 196.265C223.499 196.391 223.234 196.595 223.036 196.856C222.841 197.25 222.749 197.687 222.769 198.126C222.532 203.159 222.093 208.343 220.706 213.235Z" fill="#FF5B00"/>
<path d="M212.592 213.386C210.267 210.938 207.881 208.444 204.886 206.887C203.706 206.273 202.364 205.809 201.058 206.041C199.752 206.273 198.536 207.406 198.597 208.731C198.637 209.552 199.136 210.278 199.293 211.084C199.474 211.991 199.212 212.958 199.494 213.835C199.724 214.413 200.067 214.938 200.503 215.382L204.074 219.609C205.587 221.372 207.1 223.161 209.046 224.38C210.993 225.599 213.515 226.168 215.653 225.302C217.174 224.595 218.439 223.435 219.274 221.982C220.162 220.571 220.787 219.029 221.619 217.573C222.914 215.247 224.623 213.176 226.662 211.462C225.613 211.19 224.297 210.807 223.636 209.95C223.448 209.678 223.288 209.388 223.157 209.084L222.34 207.321C222.062 207.306 221.785 207.349 221.524 207.447C221.264 207.545 221.027 207.696 220.827 207.89C220.477 208.294 220.101 208.676 219.703 209.034C218.992 209.568 218.028 209.714 217.383 210.323C217.133 210.585 216.907 210.868 216.707 211.17C216.219 211.811 215.599 212.34 214.889 212.723C214.179 213.105 213.396 213.331 212.592 213.386Z" fill="#3F3D56"/>
<path d="M226.849 202.852C228.599 199.662 228.518 195.839 229.017 192.236C229.072 191.282 229.407 190.366 229.981 189.601C230.989 188.463 232.77 188.448 234.293 188.594C234.742 188.644 235.301 188.856 235.276 189.304C235.241 189.465 235.162 189.613 235.049 189.732C233.573 191.636 232.705 193.939 232.558 196.342C233.35 196.891 234.575 195.763 235.337 196.342C235.841 196.766 235.609 197.602 235.306 198.206C234.604 199.607 233.879 200.998 233.133 202.378C232.537 203.595 231.76 204.714 230.828 205.698C230.188 206.313 229.436 206.797 228.785 207.401C227.273 208.817 226.36 210.817 224.796 212.197C224.664 212.34 224.485 212.432 224.292 212.454C224.093 212.44 223.906 212.356 223.762 212.218C222.981 211.583 222.334 210.801 221.856 209.915C221.261 208.817 221.352 208.494 222.29 207.719C224.045 206.333 225.755 204.847 226.849 202.852Z" fill="#BE6F72"/>
<path d="M209.667 211.22C209.969 211.406 210.342 211.618 210.675 211.462C210.811 211.38 210.927 211.268 211.013 211.134C211.59 210.366 212.071 209.53 212.445 208.646C212.51 208.521 212.546 208.383 212.551 208.243C212.551 207.92 212.264 207.683 211.997 207.497C210.564 206.585 209.025 205.854 207.412 205.32C206.081 204.817 204.689 204.378 203.277 204.504C202.746 204.54 202.228 204.682 201.754 204.923C201.28 205.164 200.86 205.498 200.518 205.905C199.51 207.2 201.199 207.593 202.258 208.061C204.709 209.175 207.362 209.819 209.667 211.22Z" fill="#FF5B00"/>
<path opacity="0.1" d="M208.078 219.785C208.061 219.9 208.071 220.017 208.108 220.128C208.145 220.238 208.207 220.338 208.29 220.42C208.436 219.704 208.244 218.949 208.396 218.228C208.618 217.145 209.672 216.329 209.762 215.241C207.831 214.863 208.093 218.616 208.078 219.785Z" fill="black"/>
<path opacity="0.2" d="M297 180.387V185.349L276.494 186.594L275.874 181.626L297 180.387Z" fill="black"/>
<path d="M206.152 188.412C207.433 187.369 206.691 185.183 207.559 183.782C208.063 183.016 208.915 182.613 209.752 182.271C210.763 181.798 211.845 181.499 212.955 181.384C213.511 181.331 214.071 181.403 214.595 181.596C215.119 181.789 215.592 182.097 215.981 182.497C216.309 182.87 216.53 183.324 216.838 183.712C217.219 184.164 217.716 184.505 218.275 184.699C218.834 184.892 219.436 184.931 220.015 184.81C220.686 184.659 221.382 184.15 221.337 183.465C221.261 183.048 221.048 182.669 220.731 182.387L219.289 180.79C217.65 178.976 215.829 177.051 213.424 176.598C211.75 176.28 210.035 176.729 208.421 177.268C207.77 177.484 207.039 177.807 206.858 178.467C206.737 178.92 206.918 179.414 206.812 179.873C206.605 180.785 205.435 181.092 204.891 181.858C204.346 182.623 204.512 183.53 204.356 184.377C204.2 185.223 203.746 186.049 203.69 186.926C203.655 187.455 203.922 188.437 204.518 188.629C205.113 188.82 205.783 187.783 206.152 188.412Z" fill="#3F3D56"/>
<path d="M220.847 182.739C220.422 180.523 219.505 178.429 218.164 176.613C216.972 174.916 215.313 173.6 213.389 172.824C212.426 172.449 211.392 172.296 210.362 172.377C209.332 172.458 208.334 172.771 207.443 173.293C206.119 174.236 205.09 175.534 204.472 177.036C203.166 179.847 202.682 183.283 204.2 185.984C204.805 185.248 205.844 185.581 206.762 185.314C207.912 184.986 208.885 184.221 209.979 183.742C213.283 182.286 217.317 183.465 220.847 182.739Z" fill="#FED253"/>
<path opacity="0.1" d="M204.971 182.583C204.855 181.676 204.78 180.623 205.425 179.978C205.457 179.939 205.498 179.907 205.545 179.886C205.591 179.865 205.642 179.855 205.693 179.857C205.738 179.872 205.779 179.896 205.815 179.927C205.85 179.958 205.879 179.996 205.899 180.039C206.272 180.626 206.589 181.247 206.847 181.893C206.472 181.806 206.078 181.835 205.719 181.974C205.359 182.113 205.05 182.357 204.83 182.674" fill="black"/>
<path opacity="0.1" d="M216.757 180.024L216.576 178.225C216.547 178.077 216.559 177.924 216.611 177.782C216.687 177.663 216.805 177.577 216.941 177.54C217.077 177.502 217.222 177.517 217.347 177.58C217.596 177.718 217.8 177.922 217.938 178.17C218.357 178.814 218.706 179.501 218.976 180.22C218.164 180.064 217.329 180.074 216.52 180.25" fill="black"/>
<path opacity="0.1" d="M221.271 253.022V257.133L217.796 257.365H199.52V253.022H221.271Z" fill="black"/>
<path d="M221.271 253.022V257.365H199.52L141.735 185.052V181.636H153.848L221.271 253.022Z" fill="#F1C0C0"/>
<path opacity="0.1" d="M221.271 253.022V257.365H199.52L141.735 185.052V181.636H153.848L221.271 253.022Z" fill="black"/>
<path opacity="0.1" d="M221.271 253.022V257.365H199.52L141.735 185.052V181.636L199.832 253.022H221.271Z" fill="black"/>
<path d="M149.309 325.501C149.347 325.705 149.343 325.915 149.296 326.118C149.249 326.32 149.161 326.511 149.037 326.678C148.913 326.845 148.756 326.984 148.575 327.088C148.395 327.191 148.195 327.256 147.988 327.279C146.586 327.753 145.098 328.221 144.105 329.295C143.111 330.368 142.915 332.358 144.105 333.229C144.713 333.596 145.412 333.786 146.122 333.778C148.407 333.935 150.787 333.904 152.86 332.937C154.343 332.252 155.74 331.083 157.369 331.189C158.211 331.239 159.108 331.632 159.86 331.249C160.611 330.866 160.823 329.798 160.828 328.907C160.847 327.045 160.566 325.192 159.996 323.42C159.92 323.178 156.713 322.992 156.33 322.916L152.441 322.412C151.705 322.317 150.116 321.762 149.536 322.377C148.956 322.992 149.309 324.77 149.309 325.501Z" fill="#59595E"/>
<path d="M172.513 312.926C172.678 313.833 172.945 314.719 173.31 315.566C173.85 316.936 174.541 318.392 175.862 319.057C177.062 319.657 178.535 319.44 179.755 318.871C180.265 318.66 180.711 318.321 181.051 317.888C181.445 317.203 181.621 316.414 181.556 315.626C181.556 313.676 181.44 311.661 180.547 309.928C179.781 308.416 178.444 307.117 178.424 305.444L173.83 306.331C173.584 306.354 173.349 306.447 173.154 306.598C173.008 306.751 172.907 306.941 172.861 307.147C172.371 309.032 172.253 310.995 172.513 312.926Z" fill="#59595E"/>
<path d="M117.648 265.063C117.456 266.685 117.537 268.423 118.384 269.824C119.232 271.225 121.017 272.152 122.56 271.592C122.639 271.572 122.713 271.536 122.778 271.487C122.843 271.438 122.898 271.376 122.938 271.305C122.98 271.135 122.956 270.956 122.873 270.801C122.192 268.985 122.248 266.975 123.029 265.199C123.13 264.967 123.347 264.695 123.584 264.786C123.683 264.836 123.763 264.917 123.811 265.018C124.055 265.44 124.177 265.921 124.164 266.408C124.093 266.85 124.079 267.298 124.124 267.743C124.219 268.177 124.683 268.585 125.087 268.398C125.203 268.327 125.304 268.232 125.383 268.12C125.462 268.009 125.517 267.882 125.546 267.748C126.67 264.499 126.161 260.947 125.647 257.546C125.651 257.468 125.638 257.39 125.609 257.317C125.58 257.245 125.535 257.179 125.478 257.126C125.42 257.073 125.352 257.033 125.278 257.009C125.203 256.984 125.124 256.977 125.047 256.987C122.666 256.75 121.365 256.181 120.003 258.392C118.833 260.257 117.648 262.821 117.648 265.063Z" fill="#FF5B00"/>
<path d="M145.477 256.795C144.771 259.728 144.059 262.695 144.014 265.708C144.026 267.584 144.168 269.458 144.438 271.315L144.967 275.678C145.149 277.149 145.325 278.616 145.583 280.072C145.747 280.822 145.836 281.586 145.85 282.354C145.8 283.111 145.68 283.861 145.492 284.596C145.175 286.139 144.997 287.707 144.962 289.281C144.907 291.8 145.219 294.32 145.416 296.839C145.809 301.859 145.75 306.903 145.24 311.913C145.036 313.265 145.33 314.645 146.067 315.797C146.366 316.161 146.612 316.564 146.798 316.996C147.176 318.15 146.294 319.304 146.067 320.488C145.921 321.411 146.149 322.354 146.699 323.11C147.25 323.865 148.078 324.372 149.002 324.518C153.036 324.997 157.182 324.78 160.818 326.624C161.201 325.506 160.364 324.236 160.747 323.098C160.99 322.392 161.655 321.934 162.109 321.339C162.719 320.433 163.023 319.357 162.977 318.266C162.994 316.842 162.741 315.428 162.23 314.099C161.801 312.991 161.186 311.898 161.222 310.709C161.222 310.124 161.428 309.51 161.191 308.971C161.029 308.661 160.808 308.385 160.541 308.159C159.033 306.51 158.107 304.413 157.903 302.189C157.706 299.982 157.778 297.759 158.115 295.569C158.362 293.483 158.695 291.282 160.021 289.654C159.406 284.72 159.768 279.713 161.085 274.918C161.216 274.474 161.423 273.96 161.877 273.855C162.057 273.836 162.24 273.861 162.408 273.928C162.577 273.995 162.727 274.101 162.845 274.237C163.637 274.978 164.015 276.051 164.358 277.079C164.737 278.192 165.12 279.381 164.832 280.52C164.711 281.024 164.469 281.467 164.328 281.951C164.021 282.923 164.075 283.973 164.479 284.908C164.677 285.25 164.8 285.629 164.843 286.022C164.796 286.359 164.694 286.685 164.54 286.989C164.353 287.585 164.294 288.214 164.366 288.835C164.438 289.455 164.64 290.054 164.959 290.591C165.601 291.661 166.394 292.633 167.314 293.478C166.875 295.412 166.988 297.43 167.642 299.302C167.689 299.387 167.719 299.479 167.73 299.575C167.741 299.671 167.733 299.769 167.707 299.862C167.616 300.053 167.384 300.124 167.203 300.26C166.698 300.673 167.011 301.454 167.349 301.993C168.275 303.472 169.298 304.889 170.41 306.235C171.419 307.439 171.328 309.762 172.831 310.195C173.463 310.331 174.116 310.331 174.747 310.195C176.23 309.968 177.884 309.54 178.611 308.23C178.908 307.691 179.029 307.036 179.493 306.633C179.957 306.23 180.557 306.159 180.814 305.676C181.072 305.192 180.784 304.557 180.87 303.998C180.956 303.439 181.445 302.99 181.601 302.401C181.974 301.04 180.386 299.922 180.169 298.531C179.856 296.516 182.398 295.005 182.292 292.989C182.07 288.611 181.929 284.213 181.702 279.835C181.417 275.913 181.377 271.977 181.581 268.051C181.758 265.607 182.085 263.048 181.188 260.775C179.897 257.571 176.336 255.773 172.892 255.43C169.447 255.087 166.013 255.904 162.598 256.438C156.932 257.31 151.175 257.43 145.477 256.795Z" fill="#3F3D56"/>
<path d="M155.714 208.641C160.176 208.641 163.794 205.027 163.794 200.569C163.794 196.112 160.176 192.498 155.714 192.498C151.252 192.498 147.635 196.112 147.635 200.569C147.635 205.027 151.252 208.641 155.714 208.641Z" fill="#FBBEBE"/>
<path d="M152.426 210.147C152.152 210.785 151.69 211.326 151.102 211.697C150.515 212.069 149.828 212.254 149.133 212.228C148.84 213.437 149.541 214.656 150.343 215.608C152.008 217.544 154.16 219.001 156.577 219.829C158.993 220.657 161.587 220.826 164.091 220.319C165.065 220.145 165.99 219.76 166.799 219.19C167.891 218.28 168.623 217.013 168.867 215.613C169.099 214.224 169.165 212.812 169.064 211.406C169.092 211.129 169.013 210.851 168.842 210.631C168.64 210.475 168.391 210.393 168.136 210.399C166.431 210.248 164.651 210.182 163.153 209.346C161.655 208.51 160.591 206.62 161.312 205.068C161.196 205.31 158.251 205.426 157.863 205.477C156.647 205.648 155.432 205.839 154.222 206.061C153.64 206.093 153.065 206.201 152.512 206.383C151.781 206.761 152.053 206.575 152.224 207.26C152.482 208.308 152.86 209.059 152.426 210.147Z" fill="#FBBEBE"/>
<path d="M158.574 215.054C157.486 215.067 156.4 214.947 155.341 214.696C154.272 214.447 153.329 213.819 152.688 212.928C152.315 212.364 152.073 211.653 151.478 211.336C150.505 210.832 149.395 211.684 148.619 212.465C147.911 213.235 147.092 213.894 146.188 214.419C145.108 214.989 143.848 215.19 142.829 215.86C142.033 216.461 141.35 217.198 140.812 218.037L133.665 227.76C130.796 231.67 128.299 235.867 125.743 239.993C123.529 243.565 122.369 247.676 120.699 251.53C120.567 251.766 120.512 252.038 120.543 252.306C120.603 252.568 120.921 252.78 121.143 252.629C120.392 253.374 121.052 254.644 120.876 255.692C120.675 256.425 120.257 257.08 119.676 257.571C120.786 257.427 121.912 257.479 123.004 257.727C124.132 258.047 125.197 258.558 126.151 259.239C126.761 259.143 126.706 258.06 127.16 257.657C127.432 257.42 127.835 257.45 128.194 257.38C129.54 257.118 130.075 255.501 131.108 254.589C131.971 253.828 133.191 253.581 134.104 252.866C135.587 251.702 135.905 249.631 136.681 247.913C137.342 246.457 138.381 245.187 138.961 243.696C139.339 242.729 139.521 241.681 140.06 240.789C140.923 239.348 142.547 238.582 144.095 237.892C145.073 237.454 146.112 237 147.166 237.071C147.111 239.414 146.813 241.721 147.322 244.008C147.499 244.815 147.746 245.601 147.958 246.402C148.921 250.009 149.148 253.767 149.193 257.486C151.511 256.956 153.877 256.672 156.254 256.639C158.125 256.584 159.991 256.826 161.862 256.79C164.081 256.75 166.275 256.322 168.494 256.171C170.713 256.019 173.033 256.171 174.995 257.178C174.835 253.985 174.925 250.785 175.262 247.606L175.796 242.598C175.917 241.143 176.141 239.698 176.467 238.275C176.76 237.126 177.183 236.018 177.506 234.874C178.641 230.844 178.434 226.541 178.217 222.344C178.106 220.188 177.274 218.067 176.296 216.147C175.942 215.434 175.537 214.747 175.085 214.092C173.903 212.465 172.327 211.163 170.505 210.308C168.684 209.454 166.675 209.074 164.666 209.205C164.41 209.213 164.157 209.267 163.92 209.366C163.494 209.638 163.161 210.034 162.966 210.5C161.923 212.373 160.409 213.943 158.574 215.054Z" fill="#3F3D56"/>
<path d="M148.608 203.245C148.835 202.741 149.446 202.554 149.819 202.151C150.535 201.386 150.212 200.161 150.323 199.128C150.505 197.617 151.76 196.352 153.198 195.813C154.664 195.343 156.223 195.245 157.737 195.526C158.465 195.579 159.169 195.813 159.784 196.206C160.046 196.398 160.289 196.645 160.536 196.821C160.986 197.093 161.525 197.178 162.038 197.059C162.55 196.939 162.996 196.624 163.279 196.181C161.494 194.035 159.517 191.768 156.804 191.108C155.873 190.918 154.924 190.828 153.974 190.841C152.719 190.815 151.423 190.795 150.263 191.274C148.684 191.924 147.575 193.42 147.005 195.032C146.506 196.667 146.24 198.362 146.213 200.071C146.11 201.21 146.11 202.357 146.213 203.497C146.408 205.053 146.987 206.537 147.897 207.814C148.02 208.013 148.195 208.174 148.402 208.283C150.701 209.29 148.422 203.663 148.608 203.245Z" fill="#3F3D56"/>
<path d="M163.017 194.937C162.74 192.564 161.045 190.604 159.245 189.027C157.793 187.66 156.065 186.62 154.176 185.979C152.275 185.42 150.086 185.541 148.457 186.674C147.146 187.586 146.314 189.037 145.673 190.498C144.832 192.222 144.415 194.122 144.458 196.04C144.584 197.945 145.512 199.874 147.166 200.836C147.761 199.96 148.795 199.506 149.789 199.149C154.119 197.507 158.535 196.101 163.017 194.937Z" fill="#FED253"/>
<path opacity="0.1" d="M147.721 193.949C147.882 193.949 147.988 194.115 148.069 194.252C148.479 194.891 148.832 195.565 149.123 196.267C148.533 196.393 147.519 196.534 147.227 196.015C147.07 195.753 147.257 193.924 147.721 193.949Z" fill="black"/>
<path opacity="0.1" d="M159.214 192.811C159.093 192.926 158.952 192.69 158.952 192.518V190.564C158.949 190.509 158.961 190.455 158.987 190.407C159.008 190.383 159.034 190.364 159.062 190.35C159.091 190.336 159.122 190.328 159.154 190.327C159.562 190.281 159.9 190.629 160.162 190.962C160.56 191.5 160.907 192.076 161.196 192.68L159.063 192.614" fill="black"/>
<path d="M185.837 225.181C186.302 224.741 186.797 224.335 187.32 223.967C188.717 223.035 190.407 222.667 191.975 222.072C193.543 221.478 195.137 220.515 195.747 218.954C196.053 217.977 196.152 216.948 196.04 215.931C196.054 215.505 195.979 215.081 195.818 214.686C195.626 214.338 195.353 214.04 195.021 213.82C192.893 212.248 190.038 212.122 187.396 212.283C181.57 212.644 175.859 214.068 170.546 216.485C170.265 216.578 170.019 216.753 169.84 216.989C169.737 217.207 169.69 217.448 169.704 217.689C169.61 219.175 169.804 220.665 170.274 222.077C170.97 223.871 172.402 225.317 173.002 227.146C173.275 227.967 173.366 228.839 173.603 229.665C173.797 230.518 174.302 231.269 175.02 231.771C177.012 232.96 178.893 231.363 180.275 230.123L185.837 225.181Z" fill="#3F3D56"/>
<path d="M159.749 232.159L157.192 226.586C156.817 225.814 156.494 225.018 156.224 224.203C155.931 223.231 155.79 222.223 155.518 221.246C154.62 217.991 152.356 215.281 151.251 212.092C151.181 211.804 151.039 211.538 150.838 211.321C150.676 211.207 150.492 211.13 150.298 211.095C150.103 211.06 149.904 211.068 149.713 211.119C148.17 211.386 146.964 212.56 145.552 213.225C144.897 213.528 144.191 213.729 143.535 214.077C143.207 214.232 142.917 214.456 142.684 214.733C142.45 215.01 142.28 215.335 142.183 215.684C142.027 216.455 142.41 217.195 142.733 217.946C144.105 221.039 144.418 224.496 144.478 227.881C144.523 230.159 144.407 232.602 143.061 234.431C140.474 237.958 142.128 243.137 143.096 247.404C143.212 247.908 143.348 248.452 143.429 248.986C143.514 249.654 143.553 250.328 143.545 251.001C143.545 253.264 143.419 255.596 142.471 257.647C143.407 258.144 144.439 258.436 145.497 258.503C148.425 258.876 151.365 259.138 154.317 259.289C155.242 259.376 156.175 259.329 157.086 259.148C158.168 258.856 159.122 258.212 159.797 257.318C160.472 256.424 160.829 255.33 160.813 254.211C160.974 255.606 161.272 257.123 162.286 258.09C163.299 259.057 164.777 259.204 166.154 259.279C170.04 259.485 173.936 259.375 177.804 258.952C178.05 258.941 178.293 258.884 178.52 258.785C179.266 258.413 179.306 257.385 179.246 256.559C179.135 255.012 179.019 253.465 178.832 251.928C178.674 250.949 178.593 249.958 178.59 248.966C178.667 247.945 178.836 246.934 179.095 245.943C179.77 242.799 180.305 239.59 180.078 236.371C179.988 235.586 179.956 234.797 179.982 234.008C180.113 232.229 181.051 230.536 180.875 228.768C180.371 223.569 179.962 218.233 178.51 213.215C178.247 212.318 177.915 211.356 177.133 210.842C176.124 210.167 174.707 210.52 173.552 210.092C173.01 209.84 172.495 209.534 172.014 209.18C170.969 208.527 169.771 208.158 168.539 208.112C167.611 208.076 166.577 208.283 166.018 209.028C165.758 209.448 165.587 209.916 165.513 210.404C164.782 213.477 163.925 216.515 163.067 219.553L162.245 222.465L160.041 230.284C159.825 231.116 159.971 231.373 159.749 232.159Z" fill="#FF5B00"/>
<path d="M172.644 201.653L221.427 252.866V257.208H199.676L163.017 209.411" fill="#F1C0C0"/>
<path opacity="0.1" d="M172.644 201.653L221.427 252.866V257.208H199.676L163.017 209.411" fill="black"/>
<path opacity="0.1" d="M163.794 208.736L163.95 208.792L199.989 252.866H221.427V257.208H199.676L163.017 209.411L163.794 208.736Z" fill="black"/>
<path d="M169.407 209.814C167.642 210.585 165.68 211.573 165.15 213.427C165.046 213.752 165.023 214.098 165.085 214.434C165.214 214.83 165.46 215.177 165.79 215.429C166.12 215.682 166.52 215.829 166.936 215.85C167.766 215.87 168.592 215.719 169.361 215.407L179.776 211.971C180.058 211.88 180.381 211.744 180.451 211.467C180.469 211.293 180.434 211.117 180.35 210.963C180.028 210.177 179.71 208.57 179.034 208.021C178.479 207.577 177.38 207.734 176.709 207.744C174.127 207.764 171.701 208.807 169.407 209.814Z" fill="#FF5B00"/>
<path d="M178.691 212.379C180.446 212.374 182.19 212.644 183.861 213.18C185.538 213.724 187.025 214.738 188.142 216.102C188.468 216.483 188.699 216.935 188.818 217.422C188.919 217.926 190.563 218.228 190.2 218.571C191.304 218.394 191.042 218.913 192.162 218.903C193.281 218.893 194.492 218.606 195.162 217.714C195.628 216.982 195.836 216.115 195.752 215.251C195.767 214.652 195.654 214.058 195.42 213.507C194.915 212.449 193.755 211.88 192.686 211.391L183.679 207.275C183.156 206.998 182.596 206.799 182.015 206.686C181.526 206.64 181.033 206.651 180.547 206.721L176.467 207.19C177.359 207.766 178.086 208.565 178.575 209.508C179.064 210.451 179.299 211.504 179.256 212.565" fill="#3F3D56"/>
</g>
<defs>
<clipPath id="clip0_1_261">
<rect width="594" height="365" fill="white"/>
</clipPath>
</defs>
</svg>
